<svg xmlns="http://www.w3.org/2000/svg" width="414" height="500" viewBox="0 0 414 500">
<rect width="414" height="500" fill="#f4f6f8"/>
<text x="207.0" y="36" font-size="22" fill="#1f2933" font-weight="800" text-anchor="middle" font-family="Hiragino Sans, Noto Sans JP, sans-serif">受診先ナビ</text>
<rect x="265.0" y="24" width="46" height="16" rx="8" fill="#1d6fb8"/>
<text x="288.0" y="36" font-size="10" fill="#fff" font-weight="700" text-anchor="middle" font-family="Hiragino Sans, Noto Sans JP, sans-serif">試作版</text>
<text x="207.0" y="58" font-size="11" fill="#6b7280" font-weight="400" text-anchor="middle" font-family="Hiragino Sans, Noto Sans JP, sans-serif">症状から受診先の目安と徒歩圏内の病院を案内</text>
<rect x="12" y="74" width="390" height="70" rx="12" fill="#fff8e1" stroke="#f0d98c" stroke-width="1"/>
<text x="24" y="98" font-size="11.5" fill="#1f2933" font-weight="700" text-anchor="start" font-family="Hiragino Sans, Noto Sans JP, sans-serif">⚠ これは医師の診断に代わるものではありません。</text>
<text x="24" y="118" font-size="11" fill="#1f2933" font-weight="400" text-anchor="start" font-family="Hiragino Sans, Noto Sans JP, sans-serif">迷う場合は医療機関や救急(#7119 / 119)に</text>
<text x="24" y="134" font-size="11" fill="#1f2933" font-weight="400" text-anchor="start" font-family="Hiragino Sans, Noto Sans JP, sans-serif">相談してください。病名診断・薬の推奨はしません。</text>
<rect x="12" y="158" width="390" height="330" rx="12" fill="#ffffff" stroke="#e2e8f0" stroke-width="1"/>
<text x="28" y="186" font-size="14" fill="#1f2933" font-weight="700" text-anchor="start" font-family="Hiragino Sans, Noto Sans JP, sans-serif">1. 当てはまる症状を選んでください</text>
<text x="28" y="206" font-size="10.5" fill="#c0392b" font-weight="400" text-anchor="start" font-family="Hiragino Sans, Noto Sans JP, sans-serif">赤色の症状は緊急性が高い可能性があります</text>
<rect x="28.0" y="220" width="181.0" height="34" rx="8" fill="#fdecea" stroke="#f1b0a8" stroke-width="1"/>
<rect x="38.0" y="231" width="13" height="13" rx="3" fill="#fff" stroke="#f1b0a8" stroke-width="1"/>
<text x="60.0" y="242" font-size="11.5" fill="#c0392b" font-weight="600" text-anchor="start" font-family="Hiragino Sans, Noto Sans JP, sans-serif">胸の痛み・締めつけ</text>
<rect x="217.0" y="220" width="181.0" height="34" rx="8" fill="#fdecea" stroke="#f1b0a8" stroke-width="1"/>
<rect x="227.0" y="231" width="13" height="13" rx="3" fill="#fff" stroke="#f1b0a8" stroke-width="1"/>
<text x="249.0" y="242" font-size="11.5" fill="#c0392b" font-weight="600" text-anchor="start" font-family="Hiragino Sans, Noto Sans JP, sans-serif">激しい息苦しさ</text>
<rect x="28.0" y="262" width="181.0" height="34" rx="8" fill="#fdecea" stroke="#f1b0a8" stroke-width="1"/>
<rect x="38.0" y="273" width="13" height="13" rx="3" fill="#fff" stroke="#f1b0a8" stroke-width="1"/>
<text x="60.0" y="284" font-size="11.5" fill="#c0392b" font-weight="600" text-anchor="start" font-family="Hiragino Sans, Noto Sans JP, sans-serif">意識がもうろう</text>
<rect x="217.0" y="262" width="181.0" height="34" rx="8" fill="#fdecea" stroke="#f1b0a8" stroke-width="1"/>
<rect x="227.0" y="273" width="13" height="13" rx="3" fill="#fff" stroke="#f1b0a8" stroke-width="1"/>
<text x="249.0" y="284" font-size="11.5" fill="#c0392b" font-weight="600" text-anchor="start" font-family="Hiragino Sans, Noto Sans JP, sans-serif">片側手足のまひ</text>
<rect x="28.0" y="304" width="181.0" height="34" rx="8" fill="#ffffff" stroke="#e2e8f0" stroke-width="1"/>
<rect x="38.0" y="315" width="13" height="13" rx="3" fill="#fff" stroke="#e2e8f0" stroke-width="1"/>
<text x="60.0" y="326" font-size="11.5" fill="#1f2933" font-weight="400" text-anchor="start" font-family="Hiragino Sans, Noto Sans JP, sans-serif">発熱</text>
<rect x="217.0" y="304" width="181.0" height="34" rx="8" fill="#ffffff" stroke="#e2e8f0" stroke-width="1"/>
<rect x="227.0" y="315" width="13" height="13" rx="3" fill="#fff" stroke="#e2e8f0" stroke-width="1"/>
<text x="249.0" y="326" font-size="11.5" fill="#1f2933" font-weight="400" text-anchor="start" font-family="Hiragino Sans, Noto Sans JP, sans-serif">咳・のどの痛み</text>
<rect x="28.0" y="346" width="181.0" height="34" rx="8" fill="#ffffff" stroke="#e2e8f0" stroke-width="1"/>
<rect x="38.0" y="357" width="13" height="13" rx="3" fill="#fff" stroke="#e2e8f0" stroke-width="1"/>
<text x="60.0" y="368" font-size="11.5" fill="#1f2933" font-weight="400" text-anchor="start" font-family="Hiragino Sans, Noto Sans JP, sans-serif">腹痛</text>
<rect x="217.0" y="346" width="181.0" height="34" rx="8" fill="#ffffff" stroke="#e2e8f0" stroke-width="1"/>
<rect x="227.0" y="357" width="13" height="13" rx="3" fill="#fff" stroke="#e2e8f0" stroke-width="1"/>
<text x="249.0" y="368" font-size="11.5" fill="#1f2933" font-weight="400" text-anchor="start" font-family="Hiragino Sans, Noto Sans JP, sans-serif">頭痛</text>
<rect x="28.0" y="388" width="181.0" height="34" rx="8" fill="#ffffff" stroke="#e2e8f0" stroke-width="1"/>
<rect x="38.0" y="399" width="13" height="13" rx="3" fill="#fff" stroke="#e2e8f0" stroke-width="1"/>
<text x="60.0" y="410" font-size="11.5" fill="#1f2933" font-weight="400" text-anchor="start" font-family="Hiragino Sans, Noto Sans JP, sans-serif">めまい</text>
<rect x="217.0" y="388" width="181.0" height="34" rx="8" fill="#ffffff" stroke="#e2e8f0" stroke-width="1"/>
<rect x="227.0" y="399" width="13" height="13" rx="3" fill="#fff" stroke="#e2e8f0" stroke-width="1"/>
<text x="249.0" y="410" font-size="11.5" fill="#1f2933" font-weight="400" text-anchor="start" font-family="Hiragino Sans, Noto Sans JP, sans-serif">けが・打撲</text>
<rect x="28.0" y="430" width="181.0" height="34" rx="8" fill="#ffffff" stroke="#e2e8f0" stroke-width="1"/>
<rect x="38.0" y="441" width="13" height="13" rx="3" fill="#fff" stroke="#e2e8f0" stroke-width="1"/>
<text x="60.0" y="452" font-size="11.5" fill="#1f2933" font-weight="400" text-anchor="start" font-family="Hiragino Sans, Noto Sans JP, sans-serif">皮膚の異常</text>
<rect x="217.0" y="430" width="181.0" height="34" rx="8" fill="#ffffff" stroke="#e2e8f0" stroke-width="1"/>
<rect x="227.0" y="441" width="13" height="13" rx="3" fill="#fff" stroke="#e2e8f0" stroke-width="1"/>
<text x="249.0" y="452" font-size="11.5" fill="#1f2933" font-weight="400" text-anchor="start" font-family="Hiragino Sans, Noto Sans JP, sans-serif">歯の痛み</text>
<rect x="28" y="458" width="334" height="36" rx="9" fill="#1d6fb8"/>
<text x="195.0" y="481" font-size="14" fill="#fff" font-weight="700" text-anchor="middle" font-family="Hiragino Sans, Noto Sans JP, sans-serif">受診先の目安を見る</text>
</svg>